# 3ds Max Wavefront OBJ Exporter v0.97b - (c)2007 guruware
# File Created: 09.05.2014 10:42:48

mtllib tree.mtl

#
# object Cone001
#

v  20.1753 8.6792 -0.9977
v  19.5033 8.6792 -6.1019
v  15.6934 20.1333 -5.0811
v  16.2310 20.1333 -0.9977
v  17.5331 8.6792 -10.8583
v  14.1173 20.1333 -8.8862
v  14.3991 8.6792 -14.9427
v  11.6101 20.1333 -12.1537
v  10.3147 8.6792 -18.0767
v  8.3426 20.1333 -14.6609
v  5.5583 8.6792 -20.0469
v  4.5375 20.1333 -16.2371
v  0.4541 8.6792 -20.7189
v  0.4541 20.1333 -16.7746
v  -4.6501 8.6792 -20.0469
v  -3.6292 20.1333 -16.2371
v  -9.4064 8.6792 -18.0767
v  -7.4343 20.1333 -14.6609
v  -13.4908 8.6792 -14.9427
v  -10.7018 20.1333 -12.1537
v  -16.6249 8.6792 -10.8583
v  -13.2091 20.1333 -8.8862
v  -18.5950 8.6792 -6.1019
v  -14.7852 20.1333 -5.0811
v  -19.2670 8.6792 -0.9977
v  -15.3228 20.1333 -0.9977
v  -18.5950 8.6792 4.1065
v  -14.7852 20.1333 3.0856
v  -16.6249 8.6792 8.8628
v  -13.2091 20.1333 6.8907
v  -13.4908 8.6792 12.9472
v  -10.7018 20.1333 10.1582
v  -9.4064 8.6792 16.0813
v  -7.4343 20.1333 12.6655
v  -4.6501 8.6792 18.0514
v  -3.6292 20.1333 14.2416
v  0.4541 8.6792 18.7234
v  0.4541 20.1333 14.7792
v  5.5583 8.6792 18.0514
v  4.5375 20.1333 14.2416
v  10.3147 8.6792 16.0813
v  8.3426 20.1333 12.6655
v  14.3991 8.6792 12.9472
v  11.6101 20.1333 10.1582
v  17.5331 8.6792 8.8628
v  14.1173 20.1333 6.8907
v  19.5033 8.6792 4.1065
v  15.6934 20.1333 3.0856
v  11.8836 31.5874 -4.0603
v  12.2868 31.5874 -0.9977
v  10.7015 31.5874 -6.9141
v  8.8211 31.5874 -9.3647
v  6.3705 31.5874 -11.2451
v  3.5167 31.5874 -12.4272
v  0.4541 31.5874 -12.8304
v  -2.6084 31.5874 -12.4272
v  -5.4622 31.5874 -11.2451
v  -7.9128 31.5874 -9.3647
v  -9.7933 31.5874 -6.9141
v  -10.9754 31.5874 -4.0603
v  -11.3785 31.5874 -0.9977
v  -10.9754 31.5874 2.0648
v  -9.7933 31.5874 4.9186
v  -7.9128 31.5874 7.3692
v  -5.4622 31.5874 9.2497
v  -2.6084 31.5874 10.4317
v  0.4541 31.5874 10.8349
v  3.5166 31.5874 10.4317
v  6.3705 31.5874 9.2497
v  8.8211 31.5874 7.3692
v  10.7015 31.5874 4.9186
v  11.8836 31.5874 2.0648
v  8.0738 43.0416 -3.0394
v  8.3426 43.0416 -0.9977
v  7.2857 43.0416 -4.9420
v  6.0321 43.0416 -6.5757
v  4.3984 43.0416 -7.8293
v  2.4958 43.0416 -8.6174
v  0.4541 43.0416 -8.8862
v  -1.5875 43.0416 -8.6174
v  -3.4901 43.0416 -7.8293
v  -5.1238 43.0416 -6.5757
v  -6.3775 43.0416 -4.9420
v  -7.1655 43.0416 -3.0394
v  -7.4343 43.0416 -0.9977
v  -7.1655 43.0416 1.0439
v  -6.3775 43.0416 2.9465
v  -5.1238 43.0416 4.5802
v  -3.4901 43.0416 5.8339
v  -1.5876 43.0416 6.6219
v  0.4541 43.0416 6.8907
v  2.4958 43.0416 6.6219
v  4.3984 43.0416 5.8339
v  6.0321 43.0416 4.5802
v  7.2857 43.0416 2.9465
v  8.0738 43.0416 1.0439
v  4.2640 54.4957 -2.0186
v  4.3984 54.4957 -0.9977
v  3.8699 54.4957 -2.9699
v  3.2431 54.4957 -3.7867
v  2.4262 54.4957 -4.4135
v  1.4750 54.4957 -4.8076
v  0.4541 54.4957 -4.9420
v  -0.5667 54.4957 -4.8076
v  -1.5180 54.4957 -4.4135
v  -2.3349 54.4957 -3.7867
v  -2.9617 54.4957 -2.9699
v  -3.3557 54.4957 -2.0186
v  -3.4901 54.4957 -0.9977
v  -3.3557 54.4957 0.0231
v  -2.9617 54.4957 0.9744
v  -2.3349 54.4957 1.7912
v  -1.5180 54.4957 2.4181
v  -0.5667 54.4957 2.8121
v  0.4541 54.4957 2.9465
v  1.4750 54.4957 2.8121
v  2.4262 54.4957 2.4181
v  3.2431 54.4957 1.7912
v  3.8699 54.4957 0.9744
v  4.2640 54.4957 0.0231
v  0.4541 65.9498 -0.9977
v  1.9537 0.0000 -0.9977
v  1.8633 0.0000 -1.5106
v  1.8633 9.0402 -1.5106
v  1.9537 9.0402 -0.9977
v  1.6029 0.0000 -1.9617
v  1.6029 9.0402 -1.9617
v  1.2039 0.0000 -2.2964
v  1.2039 9.0402 -2.2964
v  0.7145 0.0000 -2.4746
v  0.7145 9.0402 -2.4746
v  0.1937 0.0000 -2.4746
v  0.1937 9.0402 -2.4746
v  -0.2957 0.0000 -2.2964
v  -0.2957 9.0402 -2.2964
v  -0.6946 0.0000 -1.9617
v  -0.6946 9.0402 -1.9617
v  -0.9550 0.0000 -1.5106
v  -0.9550 9.0402 -1.5106
v  -1.0455 0.0000 -0.9977
v  -1.0455 9.0402 -0.9977
v  -0.9550 0.0000 -0.4848
v  -0.9550 9.0402 -0.4848
v  -0.6946 0.0000 -0.0338
v  -0.6946 9.0402 -0.0338
v  -0.2957 0.0000 0.3010
v  -0.2957 9.0402 0.3010
v  0.1937 0.0000 0.4791
v  0.1937 9.0402 0.4791
v  0.7145 0.0000 0.4791
v  0.7145 9.0402 0.4791
v  1.2039 0.0000 0.3010
v  1.2039 9.0402 0.3010
v  1.6029 0.0000 -0.0338
v  1.6029 9.0402 -0.0338
v  1.8633 0.0000 -0.4848
v  1.8633 9.0402 -0.4848
# 157 vertices

vn 0.6186 0.7857 0.0000
vn 0.5976 0.7857 -0.1601
vn 0.5358 0.7857 -0.3093
vn 0.4374 0.7857 -0.4374
vn 0.3093 0.7857 -0.5358
vn 0.1601 0.7857 -0.5976
vn 0.0000 0.7857 -0.6186
vn -0.1601 0.7857 -0.5976
vn -0.3093 0.7857 -0.5358
vn -0.4374 0.7857 -0.4374
vn -0.5358 0.7857 -0.3093
vn -0.5976 0.7857 -0.1601
vn -0.6186 0.7857 -0.0000
vn -0.5976 0.7857 0.1601
vn -0.5358 0.7857 0.3093
vn -0.4374 0.7857 0.4374
vn -0.3093 0.7857 0.5358
vn -0.1601 0.7857 0.5976
vn -0.0000 0.7857 0.6186
vn 0.1601 0.7857 0.5976
vn 0.3093 0.7857 0.5358
vn 0.4374 0.7857 0.4374
vn 0.5358 0.7857 0.3093
vn 0.5976 0.7857 0.1601
vn 0.6166 0.7831 -0.0812
vn 0.6166 0.7831 0.0812
vn 0.5746 0.7831 -0.2380
vn 0.4934 0.7831 -0.3786
vn 0.3786 0.7831 -0.4934
vn 0.2380 0.7831 -0.5746
vn 0.0812 0.7831 -0.6166
vn -0.0812 0.7831 -0.6166
vn -0.2380 0.7831 -0.5746
vn -0.3786 0.7831 -0.4934
vn -0.4934 0.7831 -0.3786
vn -0.5746 0.7831 -0.2380
vn -0.6166 0.7831 -0.0812
vn -0.6166 0.7831 0.0812
vn -0.5746 0.7831 0.2380
vn -0.4934 0.7831 0.3786
vn -0.3786 0.7831 0.4934
vn -0.2380 0.7831 0.5746
vn -0.0812 0.7831 0.6166
vn 0.0812 0.7831 0.6166
vn 0.2380 0.7831 0.5746
vn 0.3786 0.7831 0.4934
vn 0.4934 0.7831 0.3786
vn 0.5746 0.7831 0.2380
vn 0.0000 -1.0000 -0.0000
vn 1.0000 0.0000 -0.0000
vn 1.0000 0.0000 0.0000
vn 0.9397 0.0000 -0.3420
vn 0.7660 0.0000 -0.6428
vn 0.5000 0.0000 -0.8660
vn 0.1736 0.0000 -0.9848
vn -0.1736 0.0000 -0.9848
vn -0.5000 0.0000 -0.8660
vn -0.7660 0.0000 -0.6428
vn -0.9397 0.0000 -0.3420
vn -1.0000 0.0000 -0.0000
vn -0.9397 0.0000 0.3420
vn -0.7660 0.0000 0.6428
vn -0.5000 0.0000 0.8660
vn -0.1736 0.0000 0.9848
vn 0.1736 0.0000 0.9848
vn 0.5000 0.0000 0.8660
vn 0.7660 0.0000 0.6428
vn 0.9397 0.0000 0.3420
vn 0.0000 1.0000 -0.0000
# 69 vertex normals

vt 0.8305 0.2585 0.0000
vt 0.8547 0.2585 0.0000
vt 0.8523 0.2819 0.0000
vt 0.8329 0.2819 0.0000
vt 0.8784 0.2634 0.0000
vt 0.8712 0.2859 0.0000
vt 0.9005 0.2731 0.0000
vt 0.8889 0.2936 0.0000
vt 0.9203 0.2870 0.0000
vt 0.9047 0.3048 0.0000
vt 0.9367 0.3048 0.0000
vt 0.9179 0.3190 0.0000
vt 0.9492 0.3255 0.0000
vt 0.9279 0.3355 0.0000
vt 0.9573 0.3483 0.0000
vt 0.9343 0.3538 0.0000
vt 0.9605 0.3722 0.0000
vt 0.9369 0.3730 0.0000
vt 0.9587 0.3964 0.0000
vt 0.9355 0.3923 0.0000
vt 0.9521 0.4196 0.0000
vt 0.9302 0.4109 0.0000
vt 0.9408 0.4410 0.0000
vt 0.9212 0.4280 0.0000
vt 0.9254 0.4597 0.0000
vt 0.9089 0.4429 0.0000
vt 0.9066 0.4748 0.0000
vt 0.8938 0.4550 0.0000
vt 0.8850 0.4858 0.0000
vt 0.8765 0.4638 0.0000
vt 0.8617 0.4921 0.0000
vt 0.8578 0.4689 0.0000
vt 0.8375 0.4936 0.0000
vt 0.8385 0.4700 0.0000
vt 0.8136 0.4901 0.0000
vt 0.8194 0.4672 0.0000
vt 0.7909 0.4817 0.0000
vt 0.8012 0.4606 0.0000
vt 0.7703 0.4690 0.0000
vt 0.7848 0.4503 0.0000
vt 0.7528 0.4523 0.0000
vt 0.7708 0.4370 0.0000
vt 0.7391 0.4323 0.0000
vt 0.7598 0.4210 0.0000
vt 0.7298 0.4100 0.0000
vt 0.7523 0.4032 0.0000
vt 0.7251 0.3863 0.0000
vt 0.7486 0.3842 0.0000
vt 0.8068 0.2634 0.0000
vt 0.8140 0.2859 0.0000
vt 0.8498 0.3054 0.0000
vt 0.8353 0.3054 0.0000
vt 0.8640 0.3083 0.0000
vt 0.8774 0.3141 0.0000
vt 0.8892 0.3225 0.0000
vt 0.8991 0.3332 0.0000
vt 0.9066 0.3456 0.0000
vt 0.9114 0.3593 0.0000
vt 0.9133 0.3737 0.0000
vt 0.9123 0.3881 0.0000
vt 0.9083 0.4021 0.0000
vt 0.9015 0.4149 0.0000
vt 0.8923 0.4261 0.0000
vt 0.8810 0.4352 0.0000
vt 0.8680 0.4418 0.0000
vt 0.8540 0.4456 0.0000
vt 0.8395 0.4465 0.0000
vt 0.8252 0.4443 0.0000
vt 0.8116 0.4394 0.0000
vt 0.7992 0.4317 0.0000
vt 0.7887 0.4217 0.0000
vt 0.7805 0.4097 0.0000
vt 0.7749 0.3963 0.0000
vt 0.7721 0.3821 0.0000
vt 0.8211 0.3083 0.0000
vt 0.8474 0.3288 0.0000
vt 0.8378 0.3288 0.0000
vt 0.8569 0.3308 0.0000
vt 0.8658 0.3347 0.0000
vt 0.8737 0.3403 0.0000
vt 0.8802 0.3474 0.0000
vt 0.8852 0.3556 0.0000
vt 0.8885 0.3648 0.0000
vt 0.8897 0.3744 0.0000
vt 0.8890 0.3840 0.0000
vt 0.8864 0.3933 0.0000
vt 0.8819 0.4019 0.0000
vt 0.8757 0.4093 0.0000
vt 0.8682 0.4154 0.0000
vt 0.8596 0.4198 0.0000
vt 0.8502 0.4223 0.0000
vt 0.8406 0.4229 0.0000
vt 0.8310 0.4215 0.0000
vt 0.8219 0.4182 0.0000
vt 0.8137 0.4130 0.0000
vt 0.8067 0.4064 0.0000
vt 0.8012 0.3984 0.0000
vt 0.7975 0.3895 0.0000
vt 0.7956 0.3800 0.0000
vt 0.8283 0.3308 0.0000
vt 0.8450 0.3523 0.0000
vt 0.8402 0.3523 0.0000
vt 0.8497 0.3533 0.0000
vt 0.8542 0.3552 0.0000
vt 0.8581 0.3580 0.0000
vt 0.8614 0.3616 0.0000
vt 0.8639 0.3657 0.0000
vt 0.8655 0.3703 0.0000
vt 0.8662 0.3751 0.0000
vt 0.8658 0.3799 0.0000
vt 0.8645 0.3845 0.0000
vt 0.8622 0.3888 0.0000
vt 0.8592 0.3926 0.0000
vt 0.8554 0.3956 0.0000
vt 0.8511 0.3978 0.0000
vt 0.8464 0.3990 0.0000
vt 0.8416 0.3993 0.0000
vt 0.8368 0.3986 0.0000
vt 0.8322 0.3970 0.0000
vt 0.8281 0.3944 0.0000
vt 0.8246 0.3911 0.0000
vt 0.8219 0.3871 0.0000
vt 0.8200 0.3826 0.0000
vt 0.8191 0.3779 0.0000
vt 0.8354 0.3533 0.0000
vt 0.8426 0.3758 0.0000
vt 0.7862 0.2401 0.0000
vt 0.7691 0.2230 0.0000
vt 0.7570 0.2021 0.0000
vt 0.7507 0.1787 0.0000
vt 0.7507 0.1545 0.0000
vt 0.7570 0.1312 0.0000
vt 0.7691 0.1102 0.0000
vt 0.7862 0.0931 0.0000
vt 0.8071 0.0810 0.0000
vt 0.8305 0.0748 0.0000
vt 0.8547 0.0748 0.0000
vt 0.8780 0.0810 0.0000
vt 0.8990 0.0931 0.0000
vt 0.9161 0.1102 0.0000
vt 0.9282 0.1312 0.0000
vt 0.9344 0.1545 0.0000
vt 0.9344 0.1787 0.0000
vt 0.9282 0.2021 0.0000
vt 0.9161 0.2230 0.0000
vt 0.8990 0.2401 0.0000
vt 0.8780 0.2522 0.0000
vt 0.8071 0.2522 0.0000
vt 0.8644 0.6196 0.0000
vt 0.8644 0.6412 0.0000
vt 0.7627 0.6412 0.0000
vt 0.7627 0.6196 0.0000
vt 0.8644 0.6628 0.0000
vt 0.7627 0.6628 0.0000
vt 0.8644 0.6844 0.0000
vt 0.7627 0.6844 0.0000
vt 0.8644 0.7061 0.0000
vt 0.7627 0.7061 0.0000
vt 0.8644 0.7277 0.0000
vt 0.7627 0.7277 0.0000
vt 0.8644 0.7493 0.0000
vt 0.7627 0.7493 0.0000
vt 0.8644 0.7709 0.0000
vt 0.7627 0.7709 0.0000
vt 0.8644 0.7925 0.0000
vt 0.7627 0.7925 0.0000
vt 0.8644 0.8141 0.0000
vt 0.7627 0.8141 0.0000
vt 0.8644 0.8357 0.0000
vt 0.7627 0.8357 0.0000
vt 0.8644 0.8573 0.0000
vt 0.7627 0.8573 0.0000
vt 0.8644 0.8790 0.0000
vt 0.7627 0.8790 0.0000
vt 0.8644 0.9006 0.0000
vt 0.7627 0.9006 0.0000
vt 0.8644 0.9222 0.0000
vt 0.7627 0.9222 0.0000
vt 0.8644 0.9438 0.0000
vt 0.7627 0.9438 0.0000
vt 0.8644 0.9654 0.0000
vt 0.7627 0.9654 0.0000
vt 0.8644 0.9870 0.0000
vt 0.7627 0.9870 0.0000
vt 0.8644 0.5980 0.0000
vt 0.7627 0.5980 0.0000
vt 0.8857 0.5827 0.0000
vt 0.9044 0.5719 0.0000
vt 0.9257 0.5682 0.0000
vt 0.9470 0.5719 0.0000
vt 0.9657 0.5827 0.0000
vt 0.9796 0.5993 0.0000
vt 0.9870 0.6196 0.0000
vt 0.9870 0.6412 0.0000
vt 0.9796 0.6615 0.0000
vt 0.9657 0.6781 0.0000
vt 0.9470 0.6889 0.0000
vt 0.9257 0.6926 0.0000
vt 0.9044 0.6889 0.0000
vt 0.8857 0.6781 0.0000
vt 0.8718 0.6615 0.0000
vt 0.8718 0.5993 0.0000
vt 0.9878 0.6391 0.0000
vt 0.9804 0.6594 0.0000
vt 0.9665 0.6760 0.0000
vt 0.9478 0.6868 0.0000
vt 0.9265 0.6905 0.0000
vt 0.9052 0.6868 0.0000
vt 0.8865 0.6760 0.0000
vt 0.8726 0.6594 0.0000
vt 0.8652 0.6391 0.0000
vt 0.8652 0.6175 0.0000
vt 0.8726 0.5972 0.0000
vt 0.8865 0.5806 0.0000
vt 0.9052 0.5698 0.0000
vt 0.9265 0.5661 0.0000
vt 0.9478 0.5698 0.0000
vt 0.9665 0.5806 0.0000
vt 0.9804 0.5972 0.0000
vt 0.9878 0.6175 0.0000
# 220 texture coords

g Cone001
usemtl wire_225198087
s 8
f 1/1/1 2/2/2 3/3/2 
f 3/3/2 4/4/1 1/1/1 
f 2/2/2 5/5/3 6/6/3 
f 6/6/3 3/3/2 2/2/2 
f 5/5/3 7/7/4 8/8/4 
f 8/8/4 6/6/3 5/5/3 
f 7/7/4 9/9/5 10/10/5 
f 10/10/5 8/8/4 7/7/4 
f 9/9/5 11/11/6 12/12/6 
f 12/12/6 10/10/5 9/9/5 
f 11/11/6 13/13/7 14/14/7 
f 14/14/7 12/12/6 11/11/6 
f 13/13/7 15/15/8 16/16/8 
f 16/16/8 14/14/7 13/13/7 
f 15/15/8 17/17/9 18/18/9 
f 18/18/9 16/16/8 15/15/8 
f 17/17/9 19/19/10 20/20/10 
f 20/20/10 18/18/9 17/17/9 
f 19/19/10 21/21/11 22/22/11 
f 22/22/11 20/20/10 19/19/10 
f 21/21/11 23/23/12 24/24/12 
f 24/24/12 22/22/11 21/21/11 
f 23/23/12 25/25/13 26/26/13 
f 26/26/13 24/24/12 23/23/12 
f 25/25/13 27/27/14 28/28/14 
f 28/28/14 26/26/13 25/25/13 
f 27/27/14 29/29/15 30/30/15 
f 30/30/15 28/28/14 27/27/14 
f 29/29/15 31/31/16 32/32/16 
f 32/32/16 30/30/15 29/29/15 
f 31/31/16 33/33/17 34/34/17 
f 34/34/17 32/32/16 31/31/16 
f 33/33/17 35/35/18 36/36/18 
f 36/36/18 34/34/17 33/33/17 
f 35/35/18 37/37/19 38/38/19 
f 38/38/19 36/36/18 35/35/18 
f 37/37/19 39/39/20 40/40/20 
f 40/40/20 38/38/19 37/37/19 
f 39/39/20 41/41/21 42/42/21 
f 42/42/21 40/40/20 39/39/20 
f 41/41/21 43/43/22 44/44/22 
f 44/44/22 42/42/21 41/41/21 
f 43/43/22 45/45/23 46/46/23 
f 46/46/23 44/44/22 43/43/22 
f 45/45/23 47/47/24 48/48/24 
f 48/48/24 46/46/23 45/45/23 
f 47/49/24 1/1/1 4/4/1 
f 4/4/1 48/50/24 47/49/24 
f 4/4/1 3/3/2 49/51/2 
f 49/51/2 50/52/1 4/4/1 
f 3/3/2 6/6/3 51/53/3 
f 51/53/3 49/51/2 3/3/2 
f 6/6/3 8/8/4 52/54/4 
f 52/54/4 51/53/3 6/6/3 
f 8/8/4 10/10/5 53/55/5 
f 53/55/5 52/54/4 8/8/4 
f 10/10/5 12/12/6 54/56/6 
f 54/56/6 53/55/5 10/10/5 
f 12/12/6 14/14/7 55/57/7 
f 55/57/7 54/56/6 12/12/6 
f 14/14/7 16/16/8 56/58/8 
f 56/58/8 55/57/7 14/14/7 
f 16/16/8 18/18/9 57/59/9 
f 57/59/9 56/58/8 16/16/8 
f 18/18/9 20/20/10 58/60/10 
f 58/60/10 57/59/9 18/18/9 
f 20/20/10 22/22/11 59/61/11 
f 59/61/11 58/60/10 20/20/10 
f 22/22/11 24/24/12 60/62/12 
f 60/62/12 59/61/11 22/22/11 
f 24/24/12 26/26/13 61/63/13 
f 61/63/13 60/62/12 24/24/12 
f 26/26/13 28/28/14 62/64/14 
f 62/64/14 61/63/13 26/26/13 
f 28/28/14 30/30/15 63/65/15 
f 63/65/15 62/64/14 28/28/14 
f 30/30/15 32/32/16 64/66/16 
f 64/66/16 63/65/15 30/30/15 
f 32/32/16 34/34/17 65/67/17 
f 65/67/17 64/66/16 32/32/16 
f 34/34/17 36/36/18 66/68/18 
f 66/68/18 65/67/17 34/34/17 
f 36/36/18 38/38/19 67/69/19 
f 67/69/19 66/68/18 36/36/18 
f 38/38/19 40/40/20 68/70/20 
f 68/70/20 67/69/19 38/38/19 
f 40/40/20 42/42/21 69/71/21 
f 69/71/21 68/70/20 40/40/20 
f 42/42/21 44/44/22 70/72/22 
f 70/72/22 69/71/21 42/42/21 
f 44/44/22 46/46/23 71/73/23 
f 71/73/23 70/72/22 44/44/22 
f 46/46/23 48/48/24 72/74/24 
f 72/74/24 71/73/23 46/46/23 
f 48/50/24 4/4/1 50/52/1 
f 50/52/1 72/75/24 48/50/24 
f 50/52/1 49/51/2 73/76/2 
f 73/76/2 74/77/1 50/52/1 
f 49/51/2 51/53/3 75/78/3 
f 75/78/3 73/76/2 49/51/2 
f 51/53/3 52/54/4 76/79/4 
f 76/79/4 75/78/3 51/53/3 
f 52/54/4 53/55/5 77/80/5 
f 77/80/5 76/79/4 52/54/4 
f 53/55/5 54/56/6 78/81/6 
f 78/81/6 77/80/5 53/55/5 
f 54/56/6 55/57/7 79/82/7 
f 79/82/7 78/81/6 54/56/6 
f 55/57/7 56/58/8 80/83/8 
f 80/83/8 79/82/7 55/57/7 
f 56/58/8 57/59/9 81/84/9 
f 81/84/9 80/83/8 56/58/8 
f 57/59/9 58/60/10 82/85/10 
f 82/85/10 81/84/9 57/59/9 
f 58/60/10 59/61/11 83/86/11 
f 83/86/11 82/85/10 58/60/10 
f 59/61/11 60/62/12 84/87/12 
f 84/87/12 83/86/11 59/61/11 
f 60/62/12 61/63/13 85/88/13 
f 85/88/13 84/87/12 60/62/12 
f 61/63/13 62/64/14 86/89/14 
f 86/89/14 85/88/13 61/63/13 
f 62/64/14 63/65/15 87/90/15 
f 87/90/15 86/89/14 62/64/14 
f 63/65/15 64/66/16 88/91/16 
f 88/91/16 87/90/15 63/65/15 
f 64/66/16 65/67/17 89/92/17 
f 89/92/17 88/91/16 64/66/16 
f 65/67/17 66/68/18 90/93/18 
f 90/93/18 89/92/17 65/67/17 
f 66/68/18 67/69/19 91/94/19 
f 91/94/19 90/93/18 66/68/18 
f 67/69/19 68/70/20 92/95/20 
f 92/95/20 91/94/19 67/69/19 
f 68/70/20 69/71/21 93/96/21 
f 93/96/21 92/95/20 68/70/20 
f 69/71/21 70/72/22 94/97/22 
f 94/97/22 93/96/21 69/71/21 
f 70/72/22 71/73/23 95/98/23 
f 95/98/23 94/97/22 70/72/22 
f 71/73/23 72/74/24 96/99/24 
f 96/99/24 95/98/23 71/73/23 
f 72/75/24 50/52/1 74/77/1 
f 74/77/1 96/100/24 72/75/24 
f 74/77/1 73/76/2 97/101/2 
f 97/101/2 98/102/1 74/77/1 
f 73/76/2 75/78/3 99/103/3 
f 99/103/3 97/101/2 73/76/2 
f 75/78/3 76/79/4 100/104/4 
f 100/104/4 99/103/3 75/78/3 
f 76/79/4 77/80/5 101/105/5 
f 101/105/5 100/104/4 76/79/4 
f 77/80/5 78/81/6 102/106/6 
f 102/106/6 101/105/5 77/80/5 
f 78/81/6 79/82/7 103/107/7 
f 103/107/7 102/106/6 78/81/6 
f 79/82/7 80/83/8 104/108/8 
f 104/108/8 103/107/7 79/82/7 
f 80/83/8 81/84/9 105/109/9 
f 105/109/9 104/108/8 80/83/8 
f 81/84/9 82/85/10 106/110/10 
f 106/110/10 105/109/9 81/84/9 
f 82/85/10 83/86/11 107/111/11 
f 107/111/11 106/110/10 82/85/10 
f 83/86/11 84/87/12 108/112/12 
f 108/112/12 107/111/11 83/86/11 
f 84/87/12 85/88/13 109/113/13 
f 109/113/13 108/112/12 84/87/12 
f 85/88/13 86/89/14 110/114/14 
f 110/114/14 109/113/13 85/88/13 
f 86/89/14 87/90/15 111/115/15 
f 111/115/15 110/114/14 86/89/14 
f 87/90/15 88/91/16 112/116/16 
f 112/116/16 111/115/15 87/90/15 
f 88/91/16 89/92/17 113/117/17 
f 113/117/17 112/116/16 88/91/16 
f 89/92/17 90/93/18 114/118/18 
f 114/118/18 113/117/17 89/92/17 
f 90/93/18 91/94/19 115/119/19 
f 115/119/19 114/118/18 90/93/18 
f 91/94/19 92/95/20 116/120/20 
f 116/120/20 115/119/19 91/94/19 
f 92/95/20 93/96/21 117/121/21 
f 117/121/21 116/120/20 92/95/20 
f 93/96/21 94/97/22 118/122/22 
f 118/122/22 117/121/21 93/96/21 
f 94/97/22 95/98/23 119/123/23 
f 119/123/23 118/122/22 94/97/22 
f 95/98/23 96/99/24 120/124/24 
f 120/124/24 119/123/23 95/98/23 
f 96/100/24 74/77/1 98/102/1 
f 98/102/1 120/125/24 96/100/24 
f 98/102/1 97/101/2 121/126/25 
f 121/126/25 121/126/26 98/102/1 
f 97/101/2 99/103/3 121/126/27 
f 121/126/27 121/126/25 97/101/2 
f 99/103/3 100/104/4 121/126/28 
f 121/126/28 121/126/27 99/103/3 
f 100/104/4 101/105/5 121/126/29 
f 121/126/29 121/126/28 100/104/4 
f 101/105/5 102/106/6 121/126/30 
f 121/126/30 121/126/29 101/105/5 
f 102/106/6 103/107/7 121/126/31 
f 121/126/31 121/126/30 102/106/6 
f 103/107/7 104/108/8 121/126/32 
f 121/126/32 121/126/31 103/107/7 
f 104/108/8 105/109/9 121/126/33 
f 121/126/33 121/126/32 104/108/8 
f 105/109/9 106/110/10 121/126/34 
f 121/126/34 121/126/33 105/109/9 
f 106/110/10 107/111/11 121/126/35 
f 121/126/35 121/126/34 106/110/10 
f 107/111/11 108/112/12 121/126/36 
f 121/126/36 121/126/35 107/111/11 
f 108/112/12 109/113/13 121/126/37 
f 121/126/37 121/126/36 108/112/12 
f 109/113/13 110/114/14 121/126/38 
f 121/126/38 121/126/37 109/113/13 
f 110/114/14 111/115/15 121/126/39 
f 121/126/39 121/126/38 110/114/14 
f 111/115/15 112/116/16 121/126/40 
f 121/126/40 121/126/39 111/115/15 
f 112/116/16 113/117/17 121/126/41 
f 121/126/41 121/126/40 112/116/16 
f 113/117/17 114/118/18 121/126/42 
f 121/126/42 121/126/41 113/117/17 
f 114/118/18 115/119/19 121/126/43 
f 121/126/43 121/126/42 114/118/18 
f 115/119/19 116/120/20 121/126/44 
f 121/126/44 121/126/43 115/119/19 
f 116/120/20 117/121/21 121/126/45 
f 121/126/45 121/126/44 116/120/20 
f 117/121/21 118/122/22 121/126/46 
f 121/126/46 121/126/45 117/121/21 
f 118/122/22 119/123/23 121/126/47 
f 121/126/47 121/126/46 118/122/22 
f 119/123/23 120/124/24 121/126/48 
f 121/126/48 121/126/47 119/123/23 
f 120/125/24 98/102/1 121/126/26 
f 121/126/26 121/126/48 120/125/24 
s 1
f 45/127/49 43/128/49 41/129/49 
f 41/129/49 39/130/49 37/131/49 
f 37/131/49 35/132/49 33/133/49 
f 41/129/49 37/131/49 33/133/49 
f 33/133/49 31/134/49 29/135/49 
f 29/135/49 27/136/49 25/137/49 
f 33/133/49 29/135/49 25/137/49 
f 25/137/49 23/138/49 21/139/49 
f 21/139/49 19/140/49 17/141/49 
f 25/137/49 21/139/49 17/141/49 
f 33/133/49 25/137/49 17/141/49 
f 17/141/49 15/142/49 13/143/49 
f 13/143/49 11/144/49 9/145/49 
f 17/141/49 13/143/49 9/145/49 
f 9/145/49 7/146/49 5/147/49 
f 5/147/49 2/2/49 1/1/49 
f 9/145/49 5/147/49 1/1/49 
f 17/141/49 9/145/49 1/1/49 
f 33/133/49 17/141/49 1/1/49 
f 41/129/49 33/133/49 1/1/49 
f 45/127/49 41/129/49 1/1/49 
f 47/148/49 45/127/49 1/1/49 
f 121/126/50 121/126/50 121/126/50 
f 121/126/50 121/126/50 121/126/50 
f 121/126/50 121/126/50 121/126/50 
f 121/126/50 121/126/50 121/126/50 
f 121/126/50 121/126/50 121/126/50 
f 121/126/50 121/126/50 121/126/50 
f 121/126/50 121/126/50 121/126/50 
f 121/126/50 121/126/50 121/126/50 
f 121/126/50 121/126/50 121/126/50 
f 121/126/50 121/126/50 121/126/50 
f 121/126/50 121/126/50 121/126/50 
f 121/126/50 121/126/50 121/126/50 
f 121/126/50 121/126/50 121/126/50 
f 121/126/50 121/126/50 121/126/50 
f 121/126/50 121/126/50 121/126/50 
f 121/126/50 121/126/50 121/126/50 
f 121/126/50 121/126/50 121/126/50 
f 121/126/50 121/126/50 121/126/50 
f 121/126/50 121/126/50 121/126/50 
f 121/126/50 121/126/50 121/126/50 
f 121/126/50 121/126/50 121/126/50 
f 121/126/50 121/126/50 121/126/50 
s 8
f 122/149/51 123/150/52 124/151/52 
f 124/151/52 125/152/51 122/149/51 
f 123/150/52 126/153/53 127/154/53 
f 127/154/53 124/151/52 123/150/52 
f 126/153/53 128/155/54 129/156/54 
f 129/156/54 127/154/53 126/153/53 
f 128/155/54 130/157/55 131/158/55 
f 131/158/55 129/156/54 128/155/54 
f 130/157/55 132/159/56 133/160/56 
f 133/160/56 131/158/55 130/157/55 
f 132/159/56 134/161/57 135/162/57 
f 135/162/57 133/160/56 132/159/56 
f 134/161/57 136/163/58 137/164/58 
f 137/164/58 135/162/57 134/161/57 
f 136/163/58 138/165/59 139/166/59 
f 139/166/59 137/164/58 136/163/58 
f 138/165/59 140/167/60 141/168/60 
f 141/168/60 139/166/59 138/165/59 
f 140/167/60 142/169/61 143/170/61 
f 143/170/61 141/168/60 140/167/60 
f 142/169/61 144/171/62 145/172/62 
f 145/172/62 143/170/61 142/169/61 
f 144/171/62 146/173/63 147/174/63 
f 147/174/63 145/172/62 144/171/62 
f 146/173/63 148/175/64 149/176/64 
f 149/176/64 147/174/63 146/173/63 
f 148/175/64 150/177/65 151/178/65 
f 151/178/65 149/176/64 148/175/64 
f 150/177/65 152/179/66 153/180/66 
f 153/180/66 151/178/65 150/177/65 
f 152/179/66 154/181/67 155/182/67 
f 155/182/67 153/180/66 152/179/66 
f 154/181/67 156/183/68 157/184/68 
f 157/184/68 155/182/67 154/181/67 
f 156/185/68 122/149/51 125/152/51 
f 125/152/51 157/186/68 156/185/68 
s 1
f 154/187/49 152/188/49 150/189/49 
f 150/189/49 148/190/49 146/191/49 
f 146/191/49 144/192/49 142/193/49 
f 150/189/49 146/191/49 142/193/49 
f 142/193/49 140/194/49 138/195/49 
f 138/195/49 136/196/49 134/197/49 
f 142/193/49 138/195/49 134/197/49 
f 134/197/49 132/198/49 130/199/49 
f 130/199/49 128/200/49 126/201/49 
f 134/197/49 130/199/49 126/201/49 
f 142/193/49 134/197/49 126/201/49 
f 150/189/49 142/193/49 126/201/49 
f 126/201/49 123/150/49 122/149/49 
f 150/189/49 126/201/49 122/149/49 
f 154/187/49 150/189/49 122/149/49 
f 156/202/49 154/187/49 122/149/49 
f 124/203/69 127/204/69 129/205/69 
f 129/205/69 131/206/69 133/207/69 
f 133/207/69 135/208/69 137/209/69 
f 129/205/69 133/207/69 137/209/69 
f 137/209/69 139/210/69 141/211/69 
f 141/211/69 143/212/69 145/213/69 
f 137/209/69 141/211/69 145/213/69 
f 145/213/69 147/214/69 149/215/69 
f 149/215/69 151/216/69 153/217/69 
f 145/213/69 149/215/69 153/217/69 
f 137/209/69 145/213/69 153/217/69 
f 129/205/69 137/209/69 153/217/69 
f 153/217/69 155/218/69 157/219/69 
f 129/205/69 153/217/69 157/219/69 
f 124/203/69 129/205/69 157/219/69 
f 125/220/69 124/203/69 157/219/69 
# 352 faces

